<svg xmlns="http://www.w3.org/2000/svg" viewBox="0 0 1920 1080"><defs><style>.cls-1{isolation:isolate;}.cls-2,.cls-7{fill:#57797a;}.cls-2,.cls-6{opacity:0.8;}.cls-3{fill:#c0c49f;}.cls-3,.cls-4{opacity:0.7;mix-blend-mode:multiply;}.cls-4{fill:#a5a886;}.cls-5{fill:#435e61;}</style></defs><g class="cls-1"><g id="Calque_1" data-name="Calque 1"><path class="cls-2" d="M233.6,666S105,562.21,211,491.88a89.05,89.05,0,0,1,17.2-8.57c4.94-1.93,14.54-9.77,26.85-39.83,18.23-44.53,75.89-23.24,90.56-8.67,6,5.93,26.19,14.22,17.43,84.21a73.9,73.9,0,0,0,4.78,37.22c3.72,9.07,9.64,18.16,19.06,23.29,23.53,12.83,46.26,67.29,9,102S285.11,710.39,233.6,666Z"/><path class="cls-3" d="M352.63,400.08a64.62,64.62,0,0,1,7,29.38c.12,23,2.29,81.82,21,101.5,21.86,23,91.27,96.36-57.94,112.13a215.24,215.24,0,0,0-50.57,11.12c-16.76,6-44.52,5.41-67.75-46.4,0,0-13.11-30.32-29.79-34.29s-32-53.63-8-81.33c18.66-21.5,71.1-73,93.63-94.92a77.68,77.68,0,0,1,42.15-21.42C319.79,373.13,340.38,376.33,352.63,400.08Z"/><path class="cls-4" d="M376.37,654c22.44-6.25,48.6-21.48,53.14-58.41A87.31,87.31,0,0,0,425,556.32c-3.84-11-8.73-30.75-4.69-52.32,5.19-27.75-23-61.24-61.33-64.11a53.39,53.39,0,0,0-32.1,8.18c-13.08,8.14-35.16,18.3-45.52,21.08-14,3.76-54.14,22.07-60.34,52.84s55.81,133.85,74.45,135c13.13.81,27.7-1.58,37.74-.26A108.16,108.16,0,0,0,376.37,654Z"/><path class="cls-5" d="M557.31,402.35v54.89h48.1a13.18,13.18,0,0,1,9.48,3.82,13.32,13.32,0,0,1,0,18.67,13,13,0,0,1-9.48,4h-48.1V566a13.15,13.15,0,0,1-3.82,9.47,13,13,0,0,1-9.33,3.82A13.05,13.05,0,0,1,530.86,566v-177a13,13,0,0,1,13.3-13.16h69.73a13.28,13.28,0,0,1,13.3,13.16,13.53,13.53,0,0,1-13.3,13.29Z"/><path class="cls-5" d="M704,434.6a58.93,58.93,0,0,1,58.85,58.85v27A58.93,58.93,0,0,1,704,579.31h-1a58.93,58.93,0,0,1-58.84-58.84v-27A58.93,58.93,0,0,1,703,434.6Zm32.4,58.85A32.59,32.59,0,0,0,704,461.06h-1a32.35,32.35,0,0,0-32.39,32.39v27A32.37,32.37,0,0,0,703,552.86h1a32.61,32.61,0,0,0,32.4-32.39Z"/><path class="cls-5" d="M842.49,434.6a58.91,58.91,0,0,1,58.84,58.85v27a58.91,58.91,0,0,1-58.84,58.84h-1a58.93,58.93,0,0,1-58.85-58.84v-27A58.93,58.93,0,0,1,841.5,434.6Zm32.39,58.85a32.59,32.59,0,0,0-32.39-32.39h-1a32.35,32.35,0,0,0-32.4,32.39v27a32.37,32.37,0,0,0,32.4,32.39h1a32.61,32.61,0,0,0,32.39-32.39Z"/><path class="cls-5" d="M1026.52,379.3a13.28,13.28,0,0,1,13.3,13.15V566a12.93,12.93,0,0,1-4,9.47,12.7,12.7,0,0,1-9.34,3.82q-10.32,0-12.73-10a57.29,57.29,0,0,1-32.82,10h-1a58.93,58.93,0,0,1-58.84-58.84v-27A58.93,58.93,0,0,1,980,434.6h1a57.82,57.82,0,0,1,32.4,9.77V392.45a13,13,0,0,1,3.81-9.33A12.7,12.7,0,0,1,1026.52,379.3Zm-13.15,114.15A32.59,32.59,0,0,0,981,461.06h-1a32.35,32.35,0,0,0-32.39,32.39v27A32.37,32.37,0,0,0,980,552.86h1a32.61,32.61,0,0,0,32.4-32.39Z"/><path class="cls-5" d="M1065.28,392.45a13,13,0,0,1,3.82-9.33,13.16,13.16,0,0,1,9.48-3.82,13,13,0,0,1,13.15,13.15v51.92a57.38,57.38,0,0,1,32.4-9.77h1A58.91,58.91,0,0,1,1184,493.45v27a58.91,58.91,0,0,1-58.85,58.84h-1a57.29,57.29,0,0,1-32.82-10q-2.55,10.05-12.73,10a13.05,13.05,0,0,1-13.3-13.29Zm26.45,128a32.37,32.37,0,0,0,32.4,32.39h1a32.61,32.61,0,0,0,32.4-32.39v-27a32.59,32.59,0,0,0-32.4-32.39h-1a32.35,32.35,0,0,0-32.4,32.39Z"/><path class="cls-5" d="M1309.15,434.6a13.28,13.28,0,0,1,13.29,13.16V566a12.93,12.93,0,0,1-4,9.47,12.66,12.66,0,0,1-9.33,3.82q-10.32,0-12.73-10a57.29,57.29,0,0,1-32.82,10h-1a58.91,58.91,0,0,1-58.84-58.84V447.76a13.05,13.05,0,0,1,3.81-9.34,13.22,13.22,0,0,1,9.48-3.82,13,13,0,0,1,13.16,13.16v72.71a32.37,32.37,0,0,0,32.39,32.39h1A32.61,32.61,0,0,0,1296,520.47V447.76a13.06,13.06,0,0,1,3.82-9.34A12.74,12.74,0,0,1,1309.15,434.6Z"/><path class="cls-5" d="M1391.9,489.35q24,0,39,17,15.13,17.4,9.2,39.33-4,14.85-17.83,24.33a53.55,53.55,0,0,1-30.83,9.33h-.29A52.74,52.74,0,0,1,1364,572.1a46.24,46.24,0,0,1-18-19,11.61,11.61,0,0,1,.85-12.73,14.3,14.3,0,0,1,12.31-6.08,14.46,14.46,0,0,1,13.57,8.06q5.52,10.47,18.39,10.47h.71a20.94,20.94,0,0,0,15.42-6.22,17.06,17.06,0,0,0,5-14.71,17.26,17.26,0,0,0-7.21-11.6,23.6,23.6,0,0,0-14-4.53q-21.93-.42-35.22-16.27-13.57-16.12-7.5-36.21,4-13,16.27-21.36a49.27,49.27,0,0,1,27.59-8.06h.42q26.6,0,39.61,21.22a11.41,11.41,0,0,1-.15,13.15q-4.24,6.51-12.59,6.51a14.69,14.69,0,0,1-13-7.22q-4.67-7.21-13.86-7.21h-.28a17.83,17.83,0,0,0-10.33,3.11,13.54,13.54,0,0,0-5.8,8.35,12.68,12.68,0,0,0,3.39,12.16A15.77,15.77,0,0,0,1391.9,489.35Z"/><path class="cls-5" d="M1522,552.86A13.28,13.28,0,0,1,1535.33,566a12.93,12.93,0,0,1-4,9.47,12.67,12.67,0,0,1-9.33,3.82h-.14a58.93,58.93,0,0,1-58.85-58.84V393a13,13,0,0,1,3.82-9.34,13.2,13.2,0,0,1,9.48-3.82A13,13,0,0,1,1489.5,393v43.85h21.36a12.7,12.7,0,0,1,9.34,3.82,13.3,13.3,0,0,1-9.34,22.63H1489.5v57.15a32.37,32.37,0,0,0,32.4,32.39Z"/><path class="cls-5" d="M1671,493.87a25.24,25.24,0,0,1-3.68,13.3q-7.63,13.16-22.77,13.16l-65.78.14a32.37,32.37,0,0,0,32.39,32.39h1q16.41,0,26.17-13.44,5.65-7.77,14.86-4.52a12.36,12.36,0,0,1,8.34,8.48,12.75,12.75,0,0,1-2,11.88q-17.68,24.06-47.39,24h-1A58.92,58.92,0,0,1,1552.31,521V493.87a58.93,58.93,0,0,1,58.84-58.7h1A56.55,56.55,0,0,1,1654,452.71a58.52,58.52,0,0,1,12.59,19.1,53.22,53.22,0,0,1,3.4,12A51.09,51.09,0,0,1,1671,493.87Zm-92.23.15h65.63a32.28,32.28,0,0,0-9.47-22.92,31.38,31.38,0,0,0-22.78-9.48h-1a32.37,32.37,0,0,0-32.39,32.25Z"/><path class="cls-5" d="M1752.61,435a13.2,13.2,0,0,1,9.33,22.63,12.67,12.67,0,0,1-9.33,3.82h-.14a32.61,32.61,0,0,0-32.4,32.39V566a13.15,13.15,0,0,1-3.82,9.47,13,13,0,0,1-9.33,3.82,13.05,13.05,0,0,1-13.3-13.29V448a12.71,12.71,0,0,1,3.82-9.33,12.93,12.93,0,0,1,9.48-4,12.37,12.37,0,0,1,8.2,3,13.23,13.23,0,0,1,4.67,7.35,56.72,56.72,0,0,1,32.68-10Z"/><g class="cls-6"><path class="cls-7" d="M551.57,638.59l-5.7,28.48h37.59l-1.35,6.62H544.53l-6.11,30.75h-7.56L545.36,632h49.69l-1.34,6.62Z"/><path class="cls-7" d="M632.11,649.57l-1.34,7.14c-.73,0-1.25-.1-2.07-.1-11.6,0-19.36,6.62-22.06,20.19l-5.48,27.64h-7.35L604.57,650h7l-1.86,9.94C614.61,652.78,621.76,649.57,632.11,649.57Z"/><path class="cls-7" d="M633.46,681.87c0-18.53,13.14-32.3,31.47-32.3,15.12,0,24.75,8.9,24.75,23,0,18.64-13.15,32.41-31.48,32.41C643.08,705,633.46,695.85,633.46,681.87Zm48.86-8.9c0-10.67-6.52-17-17.91-17-13.56,0-23.6,10.76-23.6,25.57,0,10.66,6.52,16.88,17.91,16.88C672.28,698.44,682.32,687.77,682.32,673Z"/><path class="cls-7" d="M795.58,667.07a37.21,37.21,0,0,1-.72,6.41l-6.21,31H781.3l6.21-31.06a23,23,0,0,0,.52-5.07c0-7.66-4.45-12.12-13.46-12.12-10.87,0-18.64,6-21.12,18.23l-6,30h-7.35l6.21-31.06a29.07,29.07,0,0,0,.52-5c0-7.76-4.35-12.22-13.46-12.22-11.08,0-18.74,6.42-21.33,19l-5.79,29.2h-7.36L709.65,650h7l-1.76,8.7c5.18-6.32,12.32-9.11,20.6-9.11,9.22,0,15.43,3.93,17.81,10.87,5.49-7.25,13.46-10.87,23-10.87C788.65,649.57,795.58,656.09,795.58,667.07Z"/><path class="cls-7" d="M856.35,644l-1.25,6h16.67l-1.24,6.21H854.07l-9.63,48.25h-7.35l9.63-48.25H837l1.14-6.21H848l1.35-6.83c2.07-10.25,8.38-16,18.63-16,4.35,0,8.49,1.24,11,3.52L875.71,636a11.43,11.43,0,0,0-7.77-2.69C861.52,633.31,857.9,636.63,856.35,644Z"/><path class="cls-7" d="M869.49,681.87c0-18.53,13.15-32.3,31.48-32.3,15.11,0,24.74,8.9,24.74,23,0,18.64-13.15,32.41-31.47,32.41C879.12,705,869.49,695.85,869.49,681.87Zm48.87-8.9c0-10.67-6.52-17-17.91-17-13.56,0-23.61,10.76-23.61,25.57,0,10.66,6.53,16.88,17.92,16.88C908.32,698.44,918.36,687.77,918.36,673Z"/><path class="cls-7" d="M934.4,681.87c0-18.53,13.15-32.3,31.48-32.3,15.11,0,24.74,8.9,24.74,23,0,18.64-13.15,32.41-31.47,32.41C944,705,934.4,695.85,934.4,681.87Zm48.87-8.9c0-10.67-6.52-17-17.91-17-13.56,0-23.61,10.76-23.61,25.57,0,10.66,6.53,16.88,17.92,16.88C973.23,698.44,983.27,687.77,983.27,673Z"/><path class="cls-7" d="M1064.85,627.62l-15.32,76.82h-7l1.76-8.59A27.94,27.94,0,0,1,1023,705c-14,0-23.71-8.7-23.71-23.09,0-18.64,13.05-32.3,30.75-32.3,10.36,0,17.5,4.24,20.71,11.8l6.73-33.75ZM1048.18,673c0-10.67-6.52-17-17.91-17-13.56,0-23.61,10.76-23.61,25.57,0,10.66,6.53,16.88,17.92,16.88C1038.14,698.44,1048.18,687.77,1048.18,673Z"/><path class="cls-7" d="M1109,688a21.49,21.49,0,0,0-.42,3.42c0,4.66,2.59,7.24,7.87,7.24a13.89,13.89,0,0,0,8.39-2.79l1.76,5.59c-3.42,2.59-8,3.52-12.12,3.52-8.18,0-13.25-4.66-13.25-12.43a20.37,20.37,0,0,1,.42-4.24l6.31-32.1h-9.63l1.14-6.21h9.73l2.39-11.9h7.35l-2.38,11.9h16.56l-1.24,6.21h-16.57Z"/><path class="cls-7" d="M1136.69,681.87c0-18.53,13.15-32.3,31.48-32.3,15.11,0,24.74,8.9,24.74,23,0,18.64-13.15,32.41-31.47,32.41C1146.32,705,1136.69,695.85,1136.69,681.87Zm48.87-8.9c0-10.67-6.52-17-17.91-17-13.57,0-23.61,10.76-23.61,25.57,0,10.66,6.52,16.88,17.91,16.88C1175.52,698.44,1185.56,687.77,1185.56,673Z"/><path class="cls-7" d="M1294.26,627.62l-15.32,76.82h-7l1.76-8.59a27.94,27.94,0,0,1-21.23,9.11c-14,0-23.71-8.7-23.71-23.09,0-18.64,13-32.3,30.75-32.3,10.36,0,17.5,4.24,20.71,11.8l6.73-33.75ZM1277.59,673c0-10.67-6.52-17-17.91-17-13.56,0-23.61,10.76-23.61,25.57,0,10.66,6.53,16.88,17.92,16.88C1267.55,698.44,1277.59,687.77,1277.59,673Z"/><path class="cls-7" d="M1359.38,650l-10.87,54.46h-7l1.76-8.7c-5.28,6.32-12.63,9.22-21,9.22-12.22,0-19.36-6.63-19.36-17.81a32.55,32.55,0,0,1,.62-6.11l6.21-31.06H1317L1310.82,681a28,28,0,0,0-.52,4.87c0,7.87,4.56,12.42,13.88,12.42,11.49,0,19.46-6.42,22-19.05L1352,650Z"/><path class="cls-7" d="M1363.3,698.33l3.53-5.8c4.14,3.63,11.38,6,18.84,6,10.46,0,16.15-3.62,16.15-9.73,0-12.32-30.85-3.83-30.85-22.26,0-10.36,9.32-17,23.6-17,6.94,0,14.29,2,18.43,5.07l-3.1,5.9c-4.25-3.21-10.36-4.66-16-4.66-10,0-15.74,4-15.74,9.94,0,12.63,30.86,4,30.86,22.16,0,10.77-9.63,17-24.13,17C1376,705,1367.55,702.16,1363.3,698.33Z"/><path class="cls-7" d="M1431.53,688a21.49,21.49,0,0,0-.42,3.42c0,4.66,2.59,7.24,7.87,7.24a13.85,13.85,0,0,0,8.39-2.79l1.76,5.59c-3.42,2.59-8,3.52-12.11,3.52-8.18,0-13.26-4.66-13.26-12.43a20.37,20.37,0,0,1,.42-4.24l6.31-32.1h-9.62L1422,650h9.74l2.38-11.9h7.35l-2.38,11.9h16.56l-1.24,6.21h-16.57Z"/></g></g></g></svg>