<svg xmlns="http://www.w3.org/2000/svg" viewBox="0 0 1920 1080"><defs><style>.cls-1{isolation:isolate;}.cls-2{fill:#57797a;opacity:0.8;}.cls-3{fill:#c0c49f;}.cls-3,.cls-4{opacity:0.7;mix-blend-mode:multiply;}.cls-4{fill:#a5a886;}.cls-5{fill:#435e61;}</style></defs><g class="cls-1"><g id="Calque_1" data-name="Calque 1"><path class="cls-2" d="M233.6,666.51S105,562.73,211,492.4a89.05,89.05,0,0,1,17.2-8.57c4.94-1.92,14.54-9.77,26.85-39.83,18.23-44.52,75.89-23.24,90.56-8.66,6,5.92,26.19,14.21,17.43,84.2a73.9,73.9,0,0,0,4.78,37.22c3.72,9.07,9.64,18.16,19.06,23.29,23.53,12.83,46.26,67.29,9,102S285.11,710.91,233.6,666.51Z"/><path class="cls-3" d="M352.63,400.6a64.66,64.66,0,0,1,7,29.38c.12,23,2.29,81.82,21,101.5,21.86,23,91.27,96.36-57.94,112.13a215.74,215.74,0,0,0-50.57,11.12c-16.76,6-44.52,5.41-67.75-46.4,0,0-13.11-30.31-29.79-34.29s-32-53.63-8-81.33c18.66-21.5,71.1-73,93.63-94.92a77.75,77.75,0,0,1,42.15-21.42C319.79,373.66,340.38,376.85,352.63,400.6Z"/><path class="cls-4" d="M376.37,654.52c22.44-6.25,48.6-21.48,53.14-58.41A87.25,87.25,0,0,0,425,556.85c-3.84-11-8.73-30.76-4.69-52.33,5.19-27.75-23-61.24-61.33-64.11a53.39,53.39,0,0,0-32.1,8.18c-13.08,8.15-35.16,18.3-45.52,21.08-14,3.76-54.14,22.07-60.34,52.84s55.81,133.85,74.45,135c13.13.81,27.7-1.58,37.74-.26A108,108,0,0,0,376.37,654.52Z"/><path class="cls-5" d="M557.31,464.75v54.88h48.1a13.18,13.18,0,0,1,9.48,3.82,13.32,13.32,0,0,1,0,18.67,13,13,0,0,1-9.48,4h-48.1v82.33a13.16,13.16,0,0,1-3.82,9.48,13,13,0,0,1-9.33,3.82,13.05,13.05,0,0,1-13.3-13.3v-177a13.06,13.06,0,0,1,3.82-9.34,13.2,13.2,0,0,1,9.48-3.82h69.73a13.28,13.28,0,0,1,13.3,13.16,13.53,13.53,0,0,1-13.3,13.3Z"/><path class="cls-5" d="M704,497a58.93,58.93,0,0,1,58.85,58.84v27A58.93,58.93,0,0,1,704,641.71h-1a58.93,58.93,0,0,1-58.84-58.85v-27A58.93,58.93,0,0,1,703,497Zm32.4,58.84A32.61,32.61,0,0,0,704,523.45h-1a32.37,32.37,0,0,0-32.39,32.39v27A32.35,32.35,0,0,0,703,615.25h1a32.59,32.59,0,0,0,32.4-32.39Z"/><path class="cls-5" d="M842.49,497a58.91,58.91,0,0,1,58.84,58.84v27a58.91,58.91,0,0,1-58.84,58.85h-1a58.93,58.93,0,0,1-58.85-58.85v-27A58.93,58.93,0,0,1,841.5,497Zm32.39,58.84a32.61,32.61,0,0,0-32.39-32.39h-1a32.37,32.37,0,0,0-32.4,32.39v27a32.35,32.35,0,0,0,32.4,32.39h1a32.59,32.59,0,0,0,32.39-32.39Z"/><path class="cls-5" d="M1026.52,441.69a13.28,13.28,0,0,1,13.3,13.15V628.41a12.93,12.93,0,0,1-4,9.48,12.74,12.74,0,0,1-9.34,3.82q-10.32,0-12.73-10.05A57.29,57.29,0,0,1,981,641.71h-1a58.93,58.93,0,0,1-58.84-58.85v-27A58.93,58.93,0,0,1,980,497h1a57.81,57.81,0,0,1,32.4,9.76V454.84a13,13,0,0,1,3.81-9.33A12.7,12.7,0,0,1,1026.52,441.69Zm-13.15,114.15A32.61,32.61,0,0,0,981,523.45h-1a32.37,32.37,0,0,0-32.39,32.39v27A32.35,32.35,0,0,0,980,615.25h1a32.59,32.59,0,0,0,32.4-32.39Z"/><path class="cls-5" d="M1065.28,454.84a13,13,0,0,1,3.82-9.33,13.16,13.16,0,0,1,9.48-3.82,13,13,0,0,1,13.15,13.15v51.92a57.37,57.37,0,0,1,32.4-9.76h1A58.91,58.91,0,0,1,1184,555.84v27a58.91,58.91,0,0,1-58.85,58.85h-1a57.29,57.29,0,0,1-32.82-10.05q-2.55,10.05-12.73,10.05a13.05,13.05,0,0,1-13.3-13.3Zm26.45,128a32.35,32.35,0,0,0,32.4,32.39h1a32.59,32.59,0,0,0,32.4-32.39v-27a32.61,32.61,0,0,0-32.4-32.39h-1a32.37,32.37,0,0,0-32.4,32.39Z"/><path class="cls-5" d="M1309.15,497a13.28,13.28,0,0,1,13.29,13.15V628.41a12.93,12.93,0,0,1-4,9.48,12.7,12.7,0,0,1-9.33,3.82q-10.32,0-12.73-10.05a57.29,57.29,0,0,1-32.82,10.05h-1a58.91,58.91,0,0,1-58.84-58.85V510.15a13,13,0,0,1,3.81-9.33,13.18,13.18,0,0,1,9.48-3.82,13,13,0,0,1,13.16,13.15v72.71a32.35,32.35,0,0,0,32.39,32.39h1A32.59,32.59,0,0,0,1296,582.86V510.15a13,13,0,0,1,3.82-9.33A12.7,12.7,0,0,1,1309.15,497Z"/><path class="cls-5" d="M1391.9,551.74q24,0,39,17,15.13,17.38,9.2,39.32-4,14.85-17.83,24.33a53.56,53.56,0,0,1-30.83,9.34h-.29a52.74,52.74,0,0,1-27.16-7.22,46.22,46.22,0,0,1-18-19,11.61,11.61,0,0,1,.85-12.73,14.28,14.28,0,0,1,12.31-6.09,14.45,14.45,0,0,1,13.57,8.07q5.52,10.47,18.39,10.46h.71a20.94,20.94,0,0,0,15.42-6.22,17.06,17.06,0,0,0,5-14.71,17.26,17.26,0,0,0-7.21-11.6,23.73,23.73,0,0,0-14-4.53q-21.93-.42-35.22-16.26-13.57-16.14-7.5-36.22,4-13,16.27-21.36a49.27,49.27,0,0,1,27.59-8.06h.42q26.6,0,39.61,21.22a11.41,11.41,0,0,1-.15,13.15q-4.24,6.51-12.59,6.51a14.68,14.68,0,0,1-13-7.21q-4.67-7.22-13.86-7.22h-.28a17.83,17.83,0,0,0-10.33,3.11,13.59,13.59,0,0,0-5.8,8.35,12.7,12.7,0,0,0,3.39,12.17A15.79,15.79,0,0,0,1391.9,551.74Z"/><path class="cls-5" d="M1522,615.25a13.28,13.28,0,0,1,13.29,13.16,12.93,12.93,0,0,1-4,9.48,12.71,12.71,0,0,1-9.33,3.82h-.14a58.93,58.93,0,0,1-58.85-58.85V455.41a13.23,13.23,0,1,1,26.45,0v43.85h21.36a12.7,12.7,0,0,1,9.34,3.82,13.3,13.3,0,0,1-9.34,22.63H1489.5v57.15a32.35,32.35,0,0,0,32.4,32.39Z"/><path class="cls-5" d="M1671,556.27a25.2,25.2,0,0,1-3.68,13.29q-7.63,13.16-22.77,13.16l-65.78.14a32.35,32.35,0,0,0,32.39,32.39h1q16.41,0,26.17-13.43,5.65-7.79,14.86-4.53a12.35,12.35,0,0,1,8.34,8.49,12.75,12.75,0,0,1-2,11.88q-17.68,24-47.39,24.05h-1a58.93,58.93,0,0,1-58.84-58.28V556.27a58.93,58.93,0,0,1,58.84-58.71h1A56.55,56.55,0,0,1,1654,515.1a58.63,58.63,0,0,1,12.59,19.1,53.37,53.37,0,0,1,3.4,12A51.19,51.19,0,0,1,1671,556.27Zm-92.23.14h65.63a32.31,32.31,0,0,0-9.47-22.92,31.41,31.41,0,0,0-22.78-9.47h-1a32.35,32.35,0,0,0-32.39,32.25Z"/><path class="cls-5" d="M1752.61,497.42a13.21,13.21,0,0,1,9.33,22.64,12.7,12.7,0,0,1-9.33,3.81h-.14a32.61,32.61,0,0,0-32.4,32.4v72.14a13.16,13.16,0,0,1-3.82,9.48,13,13,0,0,1-9.33,3.82,13.05,13.05,0,0,1-13.3-13.3v-118a12.74,12.74,0,0,1,3.82-9.34,12.93,12.93,0,0,1,9.48-4,12.37,12.37,0,0,1,8.2,3,13.26,13.26,0,0,1,4.67,7.36,56.66,56.66,0,0,1,32.68-10.05Z"/></g></g></svg>