<svg xmlns="http://www.w3.org/2000/svg" viewBox="0 0 1920 1080"><defs><style>.cls-1{isolation:isolate;}.cls-2{fill:#57797a;opacity:0.8;}.cls-3{fill:#c0c49f;}.cls-3,.cls-4{opacity:0.7;mix-blend-mode:multiply;}.cls-4{fill:#a5a886;}.cls-5{fill:#435e61;}</style></defs><g class="cls-1"><g id="Calque_1" data-name="Calque 1"><path class="cls-2" d="M891.93,549.1S742.25,428.35,865.59,346.51a105.24,105.24,0,0,1,20-10c5.75-2.24,16.93-11.36,31.24-46.34,21.22-51.81,88.31-27,105.38-10.08,6.94,6.89,30.48,16.54,20.28,98a86,86,0,0,0,5.56,43.3c4.33,10.55,11.22,21.13,22.18,27.1,27.38,14.93,53.83,78.3,10.53,118.63S951.86,600.76,891.93,549.1Z"/><path class="cls-3" d="M1030.42,239.7a75.21,75.21,0,0,1,8.11,34.19c.13,26.76,2.66,95.2,24.4,118.09,25.44,26.79,106.2,112.13-67.41,130.48-20,2.12-39.9,6.1-58.85,12.94-19.5,7-51.8,6.29-78.82-54,0,0-15.26-35.28-34.67-39.9s-37.26-62.4-9.29-94.63c21.71-25,82.73-84.91,108.94-110.45a90.52,90.52,0,0,1,49-24.92C992.21,208.35,1016.16,212.07,1030.42,239.7Z"/><path class="cls-4" d="M1058.05,535.15c26.11-7.27,56.54-25,61.83-68a101.32,101.32,0,0,0-5.22-45.69c-4.47-12.82-10.15-35.78-5.45-60.89,6-32.28-26.8-71.24-71.36-74.59a62.12,62.12,0,0,0-37.36,9.52c-15.21,9.48-40.91,21.3-53,24.53-16.29,4.37-63,25.68-70.21,61.48S942.26,537.29,964,538.63c15.27.94,32.23-1.84,43.91-.3A125.87,125.87,0,0,0,1058.05,535.15Z"/><path class="cls-5" d="M272.26,663.53v63.86h56a15.32,15.32,0,0,1,11,4.45,15.5,15.5,0,0,1,0,21.72,15,15,0,0,1-11,4.61h-56V854a15.34,15.34,0,0,1-4.44,11A15.17,15.17,0,0,1,257,869.43,15.17,15.17,0,0,1,241.48,854V648.06a15.13,15.13,0,0,1,4.44-10.86,15.32,15.32,0,0,1,11-4.45h81.14a15.47,15.47,0,0,1,15.48,15.31,15.75,15.75,0,0,1-15.48,15.47Z"/><path class="cls-5" d="M442.94,701.06q28.31,0,48.39,20.08t20.08,48.39V801q0,28.32-20.08,48.39t-48.39,20.08h-1.15q-28.32,0-48.39-20.08T373.32,801V769.53q0-28.31,20.08-48.39t48.39-20.08Zm37.69,68.47a37.92,37.92,0,0,0-37.69-37.69h-1.15a37.62,37.62,0,0,0-37.69,37.69V801a37.62,37.62,0,0,0,37.69,37.69h1.15A37.92,37.92,0,0,0,480.63,801Z"/><path class="cls-5" d="M604.07,701.06q28.32,0,48.4,20.08t20.07,48.39V801q0,28.32-20.07,48.39t-48.4,20.08h-1.15q-28.3,0-48.39-20.08T534.45,801V769.53q0-28.31,20.08-48.39t48.39-20.08Zm37.7,68.47a37.93,37.93,0,0,0-37.7-37.69h-1.15a37.64,37.64,0,0,0-37.69,37.69V801a37.64,37.64,0,0,0,37.69,37.69h1.15A37.93,37.93,0,0,0,641.77,801Z"/><path class="cls-5" d="M818.21,636.7A15.47,15.47,0,0,1,833.68,652V854a15.06,15.06,0,0,1-4.61,11,14.79,14.79,0,0,1-10.86,4.44q-12,0-14.82-11.68a66.69,66.69,0,0,1-38.18,11.68h-1.15q-28.32,0-48.39-20.08T695.59,801V769.53q0-28.31,20.08-48.39t48.39-20.08h1.15a67.25,67.25,0,0,1,37.69,11.35V652a15.13,15.13,0,0,1,4.44-10.86A14.78,14.78,0,0,1,818.21,636.7ZM802.9,769.53a37.92,37.92,0,0,0-37.69-37.69h-1.15a37.64,37.64,0,0,0-37.7,37.69V801a37.64,37.64,0,0,0,37.7,37.69h1.15A37.92,37.92,0,0,0,802.9,801Z"/><path class="cls-5" d="M863.31,652a15.13,15.13,0,0,1,4.44-10.86,15.3,15.3,0,0,1,11-4.45A15.18,15.18,0,0,1,894.08,652v60.4a66.79,66.79,0,0,1,37.7-11.35h1.15q28.3,0,48.39,20.08t20.08,48.39V801q0,28.32-20.08,48.39t-48.39,20.08h-1.15a66.7,66.7,0,0,1-38.19-11.68q-3,11.68-14.81,11.68A15.17,15.17,0,0,1,863.31,854Zm30.77,149a37.64,37.64,0,0,0,37.7,37.69h1.15A37.92,37.92,0,0,0,970.62,801V769.53a37.92,37.92,0,0,0-37.69-37.69h-1.15a37.64,37.64,0,0,0-37.7,37.69Z"/><path class="cls-5" d="M1147.06,701.06a15.45,15.45,0,0,1,15.47,15.3V854a15.06,15.06,0,0,1-4.61,11,14.77,14.77,0,0,1-10.86,4.44q-12,0-14.81-11.68a66.7,66.7,0,0,1-38.19,11.68h-1.15q-28.31,0-48.39-20.08T1024.44,801v-84.6a15.16,15.16,0,0,1,4.44-10.86,15.35,15.35,0,0,1,11-4.44,15.16,15.16,0,0,1,15.31,15.3V801a37.64,37.64,0,0,0,37.69,37.69h1.15A37.92,37.92,0,0,0,1131.75,801v-84.6a15.17,15.17,0,0,1,4.45-10.86A14.77,14.77,0,0,1,1147.06,701.06Z"/><path class="cls-5" d="M1243.34,764.75q28,0,45.43,19.75,17.61,20.25,10.7,45.76-4.6,17.28-20.74,28.31a62.32,62.32,0,0,1-35.88,10.86h-.33a61.41,61.41,0,0,1-31.6-8.39A53.78,53.78,0,0,1,1190,839q-4-7.56,1-14.81,5.1-7.08,14.32-7.08,10.7,0,15.8,9.38,6.42,12.19,21.39,12.18h.82a24.37,24.37,0,0,0,18-7.24q7.07-7.41,5.76-17.12-1.15-8.06-8.4-13.49a27.55,27.55,0,0,0-16.29-5.27q-25.52-.49-41-18.93-15.81-18.75-8.73-42.13,4.61-15.13,18.93-24.85a57.28,57.28,0,0,1,32.1-9.39h.49q30.94,0,46.08,24.69,4.79,7.74-.16,15.31t-14.65,7.57q-9.7,0-15.14-8.39t-16.13-8.4h-.33a20.71,20.71,0,0,0-12,3.62,15.72,15.72,0,0,0-6.75,9.71,14.76,14.76,0,0,0,4,14.16A18.34,18.34,0,0,0,1243.34,764.75Z"/><path class="cls-5" d="M1394.77,838.65A15.47,15.47,0,0,1,1410.24,854a15.06,15.06,0,0,1-4.61,11,14.77,14.77,0,0,1-10.86,4.44h-.17q-28.3,0-48.39-20.08T1326.14,801V652.67a15.13,15.13,0,0,1,4.44-10.86,15.3,15.3,0,0,1,11-4.45,15.18,15.18,0,0,1,15.3,15.31v51h24.86a14.77,14.77,0,0,1,10.86,4.44,15.48,15.48,0,0,1-10.86,26.34h-24.86V801a37.64,37.64,0,0,0,37.69,37.69Z"/><path class="cls-5" d="M1568.08,770a29.34,29.34,0,0,1-4.28,15.47q-8.88,15.32-26.5,15.31l-76.53.16a37.62,37.62,0,0,0,37.69,37.69h1.15q19.1,0,30.45-15.63,6.59-9,17.28-5.27a14.41,14.41,0,0,1,9.71,9.88,14.82,14.82,0,0,1-2.3,13.82q-20.58,28-55.14,28h-1.15q-28.15,0-48.23-19.91-19.9-19.75-20.24-47.9V770q0-28.31,20.08-48.22,20.07-20.09,48.39-20.08h1.15q28.64,0,48.72,20.41A68.33,68.33,0,0,1,1563,744.34a62.37,62.37,0,0,1,4,14A60.18,60.18,0,0,1,1568.08,770Zm-107.31.17h76.36a37.55,37.55,0,0,0-11-26.67,36.49,36.49,0,0,0-26.5-11h-1.15A37.64,37.64,0,0,0,1460.77,770Z"/><path class="cls-5" d="M1663.05,701.55a15.37,15.37,0,0,1,10.86,26.34,14.77,14.77,0,0,1-10.86,4.44h-.17A37.93,37.93,0,0,0,1625.19,770V854a15.34,15.34,0,0,1-4.44,11,15.13,15.13,0,0,1-10.86,4.44A15.17,15.17,0,0,1,1594.42,854V716.69a14.77,14.77,0,0,1,4.44-10.86,15.06,15.06,0,0,1,11-4.61,14.35,14.35,0,0,1,9.54,3.46,15.51,15.51,0,0,1,5.44,8.56,65.93,65.93,0,0,1,38-11.69Z"/></g></g></svg>