<svg xmlns="http://www.w3.org/2000/svg" viewBox="0 0 1920 1080"><defs><style>.cls-1{isolation:isolate;}.cls-2,.cls-7{fill:#57797a;}.cls-2,.cls-6{opacity:0.8;}.cls-3{fill:#c0c49f;}.cls-3,.cls-4{opacity:0.7;mix-blend-mode:multiply;}.cls-4{fill:#a5a886;}.cls-5{fill:#435e61;}</style></defs><g class="cls-1"><g id="Calque_1" data-name="Calque 1"><path class="cls-2" d="M891.93,476s-149.68-120.76-26.34-202.6a104.61,104.61,0,0,1,20-10c5.75-2.24,16.93-11.37,31.24-46.35,21.22-51.81,88.31-27,105.38-10.08,6.94,6.9,30.48,16.54,20.28,98a86,86,0,0,0,5.56,43.3c4.33,10.55,11.22,21.13,22.18,27.11,27.38,14.92,53.83,78.29,10.53,118.62S951.86,527.66,891.93,476Z"/><path class="cls-3" d="M1030.42,166.61a75.14,75.14,0,0,1,8.11,34.18c.13,26.76,2.66,95.2,24.4,118.09,25.44,26.79,106.2,112.13-67.41,130.48-20,2.12-39.9,6.1-58.85,12.94-19.5,7-51.8,6.29-78.82-54,0,0-15.26-35.28-34.67-39.9s-37.26-62.4-9.29-94.63c21.71-25,82.73-84.91,108.94-110.45a90.52,90.52,0,0,1,49-24.92C992.21,135.25,1016.16,139,1030.42,166.61Z"/><path class="cls-4" d="M1058.05,462.05c26.11-7.27,56.54-25,61.83-68a101.32,101.32,0,0,0-5.22-45.69c-4.47-12.82-10.15-35.78-5.45-60.88,6-32.29-26.8-71.25-71.36-74.59a62,62,0,0,0-37.36,9.51c-15.21,9.48-40.91,21.3-53,24.53-16.29,4.37-63,25.68-70.21,61.48S942.26,464.19,964,465.53c15.27.94,32.23-1.84,43.91-.3A125.87,125.87,0,0,0,1058.05,462.05Z"/><path class="cls-5" d="M272.26,590.43v63.86h56a15.32,15.32,0,0,1,11,4.45,15.5,15.5,0,0,1,0,21.72,15,15,0,0,1-11,4.61h-56v95.79a15.34,15.34,0,0,1-4.44,11A15.17,15.17,0,0,1,257,796.33a15.17,15.17,0,0,1-15.47-15.47V575a15.13,15.13,0,0,1,4.44-10.86,15.36,15.36,0,0,1,11-4.45h81.14A15.47,15.47,0,0,1,353.57,575a15.75,15.75,0,0,1-15.48,15.47Z"/><path class="cls-5" d="M442.94,628q28.31,0,48.39,20.08t20.08,48.39v31.43q0,28.32-20.08,48.39t-48.39,20.08h-1.15q-28.32,0-48.39-20.08t-20.08-48.39V696.43q0-28.3,20.08-48.39T441.79,628Zm37.69,68.47a37.92,37.92,0,0,0-37.69-37.69h-1.15a37.62,37.62,0,0,0-37.69,37.69v31.43a37.64,37.64,0,0,0,37.69,37.7h1.15a37.93,37.93,0,0,0,37.69-37.7Z"/><path class="cls-5" d="M604.07,628q28.32,0,48.4,20.08t20.07,48.39v31.43q0,28.32-20.07,48.39t-48.4,20.08h-1.15q-28.3,0-48.39-20.08t-20.08-48.39V696.43q0-28.3,20.08-48.39T602.92,628Zm37.7,68.47a37.93,37.93,0,0,0-37.7-37.69h-1.15a37.64,37.64,0,0,0-37.69,37.69v31.43a37.66,37.66,0,0,0,37.69,37.7h1.15a38,38,0,0,0,37.7-37.7Z"/><path class="cls-5" d="M818.21,563.6a15.47,15.47,0,0,1,15.47,15.31v202a15.06,15.06,0,0,1-4.61,11,14.79,14.79,0,0,1-10.86,4.44q-12,0-14.82-11.68a66.69,66.69,0,0,1-38.18,11.68h-1.15q-28.32,0-48.39-20.08t-20.08-48.39V696.43q0-28.3,20.08-48.39T764.06,628h1.15a67.18,67.18,0,0,1,37.69,11.36V578.91a15.13,15.13,0,0,1,4.44-10.86A14.82,14.82,0,0,1,818.21,563.6ZM802.9,696.43a37.92,37.92,0,0,0-37.69-37.69h-1.15a37.64,37.64,0,0,0-37.7,37.69v31.43a37.66,37.66,0,0,0,37.7,37.7h1.15a37.93,37.93,0,0,0,37.69-37.7Z"/><path class="cls-5" d="M863.31,578.91a15.13,15.13,0,0,1,4.44-10.86,15.35,15.35,0,0,1,11-4.45,15.18,15.18,0,0,1,15.3,15.31v60.41A66.72,66.72,0,0,1,931.78,628h1.15q28.3,0,48.39,20.08t20.08,48.39v31.43q0,28.32-20.08,48.39t-48.39,20.08h-1.15a66.7,66.7,0,0,1-38.19-11.68q-3,11.69-14.81,11.68a15.17,15.17,0,0,1-15.47-15.47Zm30.77,149a37.66,37.66,0,0,0,37.7,37.7h1.15a37.93,37.93,0,0,0,37.69-37.7V696.43a37.92,37.92,0,0,0-37.69-37.69h-1.15a37.64,37.64,0,0,0-37.7,37.69Z"/><path class="cls-5" d="M1147.06,628a15.45,15.45,0,0,1,15.47,15.31V780.86a15.06,15.06,0,0,1-4.61,11,14.77,14.77,0,0,1-10.86,4.44q-12,0-14.81-11.68a66.7,66.7,0,0,1-38.19,11.68h-1.15q-28.31,0-48.39-20.08t-20.08-48.39V643.27a15.17,15.17,0,0,1,4.44-10.87,15.35,15.35,0,0,1,11-4.44,15.16,15.16,0,0,1,15.31,15.31v84.59a37.66,37.66,0,0,0,37.69,37.7h1.15a37.93,37.93,0,0,0,37.69-37.7V643.27a15.18,15.18,0,0,1,4.45-10.87A14.77,14.77,0,0,1,1147.06,628Z"/><path class="cls-5" d="M1243.34,691.66q28,0,45.43,19.75,17.61,20.24,10.7,45.75-4.6,17.28-20.74,28.31a62.32,62.32,0,0,1-35.88,10.86h-.33a61.31,61.31,0,0,1-31.6-8.39,53.78,53.78,0,0,1-20.9-22.06q-4-7.56,1-14.81,5.1-7.07,14.32-7.08,10.7,0,15.8,9.39,6.42,12.18,21.39,12.18h.82a24.38,24.38,0,0,0,18-7.25,19.85,19.85,0,0,0,5.76-17.11q-1.15-8.07-8.4-13.5a27.55,27.55,0,0,0-16.29-5.27q-25.52-.49-41-18.92-15.81-18.76-8.73-42.14,4.61-15.14,18.93-24.85a57.27,57.27,0,0,1,32.1-9.38h.49q30.94,0,46.08,24.68,4.79,7.74-.16,15.31t-14.65,7.57q-9.7,0-15.14-8.39t-16.13-8.4h-.33a20.64,20.64,0,0,0-12,3.63,15.69,15.69,0,0,0-6.75,9.71,14.75,14.75,0,0,0,4,14.15A18.34,18.34,0,0,0,1243.34,691.66Z"/><path class="cls-5" d="M1394.77,765.56a15.45,15.45,0,0,1,15.47,15.3,15.06,15.06,0,0,1-4.61,11,14.77,14.77,0,0,1-10.86,4.44h-.17q-28.3,0-48.39-20.08t-20.07-48.39V579.57a15.13,15.13,0,0,1,4.44-10.86,15.3,15.3,0,0,1,11-4.45,15.18,15.18,0,0,1,15.3,15.31v51h24.86a14.74,14.74,0,0,1,10.86,4.45,15.47,15.47,0,0,1-10.86,26.33h-24.86v66.49a37.66,37.66,0,0,0,37.69,37.7Z"/><path class="cls-5" d="M1568.08,696.92a29.34,29.34,0,0,1-4.28,15.47q-8.88,15.32-26.5,15.31l-76.53.16a37.64,37.64,0,0,0,37.69,37.7h1.15q19.1,0,30.45-15.64,6.59-9,17.28-5.27a14.41,14.41,0,0,1,9.71,9.88,14.82,14.82,0,0,1-2.3,13.82q-20.58,28-55.14,28h-1.15q-28.15,0-48.23-19.91-19.9-19.75-20.24-47.9v-31.6q0-28.3,20.08-48.22,20.07-20.09,48.39-20.08h1.15q28.64,0,48.72,20.41A68.27,68.27,0,0,1,1563,671.25a62.08,62.08,0,0,1,4,14A60,60,0,0,1,1568.08,696.92Zm-107.31.17h76.36a37.55,37.55,0,0,0-11-26.67,36.48,36.48,0,0,0-26.5-11h-1.15a37.62,37.62,0,0,0-37.69,37.52Z"/><path class="cls-5" d="M1663.05,628.45a15.37,15.37,0,0,1,10.86,26.34,14.77,14.77,0,0,1-10.86,4.44h-.17a37.93,37.93,0,0,0-37.69,37.69v83.94a15.34,15.34,0,0,1-4.44,11,15.13,15.13,0,0,1-10.86,4.44,15.17,15.17,0,0,1-15.47-15.47V643.6a14.79,14.79,0,0,1,4.44-10.87,15.06,15.06,0,0,1,11-4.61,14.4,14.4,0,0,1,9.54,3.46,15.51,15.51,0,0,1,5.44,8.56,65.93,65.93,0,0,1,38-11.69Z"/><g class="cls-6"><path class="cls-7" d="M446.07,865.31l-6.62,33.13h43.73l-1.57,7.71H437.88l-7.11,35.78H422l16.86-84.33h57.83l-1.57,7.71Z"/><path class="cls-7" d="M539.79,878.08l-1.57,8.31c-.84,0-1.44-.12-2.41-.12-13.49,0-22.52,7.71-25.66,23.49l-6.38,32.17h-8.55l12.52-63.37h8.2l-2.17,11.57C519.43,881.81,527.74,878.08,539.79,878.08Z"/><path class="cls-7" d="M541.35,915.67c0-21.57,15.3-37.59,36.62-37.59,17.59,0,28.8,10.36,28.8,26.74,0,21.69-15.3,37.71-36.63,37.71C552.55,942.53,541.35,931.93,541.35,915.67Zm56.86-10.36c0-12.41-7.59-19.76-20.84-19.76-15.78,0-27.47,12.53-27.47,29.75,0,12.41,7.59,19.64,20.85,19.64C586.53,934.94,598.21,922.53,598.21,905.31Z"/><path class="cls-7" d="M730,898.44a42.24,42.24,0,0,1-.85,7.47l-7.22,36h-8.56l7.23-36.14a26.67,26.67,0,0,0,.6-5.91c0-8.91-5.18-14.09-15.66-14.09-12.65,0-21.68,7-24.57,21.2l-7,34.94h-8.55l7.23-36.14a33.89,33.89,0,0,0,.6-5.78c0-9-5.06-14.22-15.66-14.22-12.89,0-21.81,7.47-24.82,22.17l-6.75,34h-8.55L630,878.56h8.19l-2.05,10.12c6-7.35,14.34-10.6,24-10.6,10.72,0,18,4.58,20.72,12.65,6.38-8.43,15.66-12.65,26.74-12.65C721.93,878.08,730,885.67,730,898.44Z"/><path class="cls-7" d="M800.7,871.57l-1.45,7h19.4l-1.45,7.23H798.05l-11.21,56.14h-8.55l11.2-56.14H778.17l1.33-7.23h11.44l1.57-7.95c2.41-11.93,9.75-18.67,21.68-18.67,5.06,0,9.88,1.44,12.77,4.09l-3.74,6.27a13.25,13.25,0,0,0-9-3.13C806.72,859.17,802.5,863,800.7,871.57Z"/><path class="cls-7" d="M816,915.67c0-21.57,15.3-37.59,36.63-37.59,17.58,0,28.79,10.36,28.79,26.74,0,21.69-15.3,37.71-36.63,37.71C827.2,942.53,816,931.93,816,915.67Zm56.86-10.36c0-12.41-7.59-19.76-20.84-19.76-15.78,0-27.46,12.53-27.46,29.75,0,12.41,7.59,19.64,20.84,19.64C861.17,934.94,872.85,922.53,872.85,905.31Z"/><path class="cls-7" d="M891.52,915.67c0-21.57,15.3-37.59,36.62-37.59,17.59,0,28.79,10.36,28.79,26.74,0,21.69-15.3,37.71-36.62,37.71C902.72,942.53,891.52,931.93,891.52,915.67Zm56.86-10.36c0-12.41-7.59-19.76-20.84-19.76-15.78,0-27.47,12.53-27.47,29.75,0,12.41,7.59,19.64,20.84,19.64C936.7,934.94,948.38,922.53,948.38,905.31Z"/><path class="cls-7" d="M1043.3,852.54l-17.83,89.39h-8.19l2.05-10a32.46,32.46,0,0,1-24.7,10.6c-16.26,0-27.58-10.12-27.58-26.86,0-21.69,15.17-37.59,35.78-37.59,12,0,20.35,4.94,24.09,13.73l7.83-39.27Zm-19.39,52.77c0-12.41-7.59-19.76-20.84-19.76-15.79,0-27.47,12.53-27.47,29.75,0,12.41,7.59,19.64,20.84,19.64C1012.22,934.94,1023.91,922.53,1023.91,905.31Z"/><path class="cls-7" d="M1094.61,922.77a25.54,25.54,0,0,0-.48,4c0,5.42,3,8.43,9.15,8.43a16.09,16.09,0,0,0,9.76-3.25l2,6.5c-4,3-9.27,4.1-14.09,4.1-9.52,0-15.42-5.42-15.42-14.46a23.64,23.64,0,0,1,.48-4.93l7.35-37.35H1082.2l1.33-7.23h11.32l2.77-13.85h8.56l-2.77,13.85h19.27l-1.44,7.23H1102Z"/><path class="cls-7" d="M1126.89,915.67c0-21.57,15.3-37.59,36.63-37.59,17.58,0,28.79,10.36,28.79,26.74,0,21.69-15.3,37.71-36.63,37.71C1138.1,942.53,1126.89,931.93,1126.89,915.67Zm56.86-10.36c0-12.41-7.59-19.76-20.84-19.76-15.78,0-27.46,12.53-27.46,29.75,0,12.41,7.59,19.64,20.84,19.64C1172.07,934.94,1183.75,922.53,1183.75,905.31Z"/><path class="cls-7" d="M1310.23,852.54l-17.83,89.39h-8.19l2-10a32.46,32.46,0,0,1-24.7,10.6c-16.26,0-27.58-10.12-27.58-26.86,0-21.69,15.18-37.59,35.78-37.59,12,0,20.35,4.94,24.09,13.73l7.83-39.27Zm-19.39,52.77c0-12.41-7.59-19.76-20.84-19.76-15.79,0-27.47,12.53-27.47,29.75,0,12.41,7.59,19.64,20.84,19.64C1279.15,934.94,1290.84,922.53,1290.84,905.31Z"/><path class="cls-7" d="M1386,878.56l-12.65,63.37h-8.19l2-10.12c-6.14,7.35-14.7,10.72-24.46,10.72-14.21,0-22.52-7.71-22.52-20.72a37.6,37.6,0,0,1,.72-7.11l7.23-36.14h8.55l-7.23,36.14a32.58,32.58,0,0,0-.6,5.66c0,9.16,5.3,14.46,16.14,14.46,13.38,0,22.65-7.47,25.66-22.17l6.75-34.09Z"/><path class="cls-7" d="M1390.57,934.82l4.1-6.75c4.82,4.22,13.25,7,21.92,7,12.17,0,18.8-4.21,18.8-11.32,0-14.34-35.9-4.46-35.9-25.9,0-12.05,10.84-19.76,27.46-19.76,8.07,0,16.63,2.29,21.45,5.9l-3.62,6.87c-4.94-3.73-12-5.42-18.55-5.42-11.69,0-18.31,4.7-18.31,11.56,0,14.7,35.9,4.7,35.9,25.78,0,12.53-11.2,19.76-28.07,19.76C1405.39,942.53,1395.51,939.28,1390.57,934.82Z"/><path class="cls-7" d="M1470,922.77a25.54,25.54,0,0,0-.48,4c0,5.42,3,8.43,9.16,8.43a16.13,16.13,0,0,0,9.76-3.25l2,6.5c-4,3-9.27,4.1-14.09,4.1-9.52,0-15.42-5.42-15.42-14.46a23.64,23.64,0,0,1,.48-4.93l7.35-37.35h-11.2l1.32-7.23h11.32l2.78-13.85h8.55l-2.77,13.85H1498l-1.44,7.23H1477.3Z"/></g></g></g></svg>