<svg xmlns="http://www.w3.org/2000/svg" version="1.1" xmlns:xlink="http://www.w3.org/1999/xlink" xmlns:svgjs="http://svgjs.com/svgjs" width="1920" height="1080"><svg xmlns="http://www.w3.org/2000/svg" viewBox="0 0 1920 1080"><defs><style>.cls-1{isolation:isolate;}.cls-2{fill:#57797a;opacity:0.8;}.cls-3{fill:#c0c49f;}.cls-3,.cls-4{opacity:0.7;mix-blend-mode:multiply;}.cls-4{fill:#a5a886;}</style></defs><g class="cls-1"><g id="SvgjsG1000" data-name="Calque 1"><path class="cls-2" d="M833.12,814.39s-279-225.08-49.1-377.64c11.61-7.7,24.32-13.52,37.31-18.57C832,414,852.87,397,879.56,331.8c39.54-96.58,164.6-50.41,196.42-18.8,12.94,12.85,56.81,30.83,37.8,182.63a160.28,160.28,0,0,0,10.37,80.72c8.07,19.67,20.92,39.39,41.33,50.52,51,27.83,100.35,145.94,19.64,221.12S944.83,910.68,833.12,814.39Z"></path><path class="cls-3" d="M1091.27,237.67c10.14,19.65,15,41.59,15.1,63.71.25,49.89,5,177.46,45.5,220.14,47.42,49.93,198,209-125.67,243.21-37.34,3.94-74.37,11.37-109.69,24.11C880.17,802,820,800.57,769.59,688.2c0,0-28.44-65.75-64.62-74.37s-69.46-116.32-17.33-176.39c40.47-46.64,154.21-158.27,203.08-205.88,25-24.4,56.85-41.09,91.41-46.46C1020,179.22,1064.69,186.15,1091.27,237.67Z"></path><path class="cls-4" d="M1142.76,788.37c48.68-13.54,105.4-46.58,115.26-126.67,3.53-28.72-.21-57.83-9.73-85.16-8.33-23.91-18.92-66.7-10.16-113.5,11.26-60.17-50-132.8-133-139-24.47-1.84-48.82,4.77-69.64,17.74-28.36,17.66-76.26,39.69-98.73,45.72-30.36,8.15-117.4,47.87-130.87,114.6S926.94,792.36,967.37,794.86c28.46,1.76,60.07-3.43,81.85-.55C1080.5,798.45,1112.36,796.83,1142.76,788.37Z"></path></g></g></svg><style>@media (prefers-color-scheme: light) { :root { filter: none; } }
</style></svg>